# xmcd
#
# Track frame offsets: 
#        150
#        19966
#        42700
#
# Disc length: 921 seconds
#
# Revision: 0
# Processed by: cddbd v1.5.2PL0 Copyright (c) Steve Scherf et al.
# Submitted via: ExactAudioCopy v0.99pb3
#
DISCID=24039703
DTITLE=Jex Thoth - Witness
DYEAR=2010
DGENRE=Doom Metal
TTITLE0=Raven Nor The Spirit
TTITLE1=Slow Rewind
TTITLE2=Mr. Rainbow
EXTD=
EXTT0=
EXTT1=
EXTT2=
PLAYORDER=
